# xmcd
#
# Track frame offsets: 
#        150
#        12187
#        22573
#        34976
#        43519
#        53863
#        67371
#        77979
#        90885
#        103109
#        114112
#        122818
#        135600
#        148199
#        159409
#        179800
#        190680
#        202399
#        217255
#        229948
#
# Disc length: 3226 seconds
#
# Revision: 0
# Processed by: cddbd v1.5.2PL0 Copyright (c) Steve Scherf et al.
# Submitted via: ExactAudioCopyFreeDBPlugin 1.0
#
DISCID=230c9814
DTITLE=The Golden Gate Quartet -  Platinum Collection
DYEAR=2009
DGENRE=Gospel
TTITLE0=Shadrack
TTITLE1=Joshua fit the Battle of Jericho
TTITLE2=I Just Telephone Upstairs
TTITLE3=Good News
TTITLE4=Alexander's Ragtime Band
TTITLE5=I Pitched My Tent
TTITLE6=Roll' Jordan, Roll
TTITLE7=Good Bye Mister Froggie
TTITLE8=Over There
TTITLE9=Memories Of You
TTITLE10=Casey Jones
TTITLE11=Waillie-Waillie
TTITLE12=Margie
TTITLE13=Saint Louis Blues
TTITLE14=Deep River
TTITLE15=Didn't it rain
TTITLE16=Me And Brother Bill
TTITLE17=Swing low, sweet Chariot
TTITLE18=Invissible Hands
TTITLE19=Round the bay of Mexico
EXTD=
EXTT0=
EXTT1=
EXTT2=
EXTT3=
EXTT4=
EXTT5=
EXTT6=
EXTT7=
EXTT8=
EXTT9=
EXTT10=
EXTT11=
EXTT12=
EXTT13=
EXTT14=
EXTT15=
EXTT16=
EXTT17=
EXTT18=
EXTT19=
PLAYORDER=
